<svg width="1440" height="1465" viewBox="0 0 1440 1465" fill="none" xmlns="http://www.w3.org/2000/svg">
<g clip-path="url(#clip0)">
<path d="M320.18 1461.24C213.925 1422.55 85.2607 1439.6 -5.99927 1561.62V-149H1442.38L1444 1388.36C1363.37 1536.5 1249.95 1600.01 1145.47 1555.68C1079.23 1527.68 1015.35 1458.7 947.984 1469.33C885.136 1479.28 829.357 1557.26 768.121 1588.96C725.303 1611.13 680.518 1610.21 636.7 1600.36C529.5 1576.24 426.402 1499.95 320.18 1461.24Z" fill="url(#paint0_linear)"/>
<path d="M-208 -57.1002C-171.516 -66.4659 -130.462 -57.888 -97.6787 -42.7852C-64.8955 -27.6824 197.325 103.471 315.678 114.124C434.03 124.777 554.974 112.848 668.532 85.9715C724.839 72.6553 780.351 55.5661 839.205 51.5713C967.851 42.7715 1090.71 97.3014 1219.88 97.0017C1312 96.7798 1454.6 -2.67012 1517 -52.8057" fill="url(#paint1_linear)"/>
<path opacity="0.58" d="M1465.58 600.259C1395.55 558.76 1365.62 610.522 1362.48 687.151C1359.35 763.779 1377.09 864.215 1375.7 942.931C1372.89 1068.91 1321.24 1132.45 1231.1 1120.82C1116.93 1105.05 947.777 969.932 859.541 1004.76C745.957 1049.42 668.235 1115.97 636.429 1286.31C618.352 1383.24 625.266 1358.29 563.206 1512.7C545.51 1556.4 494.309 1570.1 451.24 1571.07C373.552 1572.82 230.389 1518.65 144.829 1503.19C104.532 1495.86 80.6058 1478.04 52.101 1493.95L449.15 2181.66L1871.26 1303.03L1465.58 600.259Z" fill="#005CFF"/>
<path opacity="0.45" d="M148.132 -41.7923C206.917 -18.1279 199.12 35.1389 164.57 84.9277C130.02 134.717 72.529 184.552 36.0144 234.405C-22.0927 314.603 -23.3375 390.5 32.529 446.908C103.78 517.698 262.295 553.201 295.089 637.107C337.392 745.004 349.289 841.181 286.362 969.393C250.543 1042.33 258.503 1021.96 220.022 1161.64C209.211 1201.26 231.325 1245.9 254.926 1276.91C297.499 1332.83 402.252 1383.31 478.802 1426.99C553.107 1469.39 586.796 1495.96 630.784 1544.37C695.31 1615.25 690.62 1706.81 695.612 1724.64L29.9982 1902.99L-411.448 108.147L148.132 -41.7923Z" fill="#161B68"/>
<path d="M1442.82 2491L1450 1430.76C1369.37 1328.62 1255.95 1284.84 1151.47 1315.35C1085.23 1334.73 1021.35 1382.23 953.984 1374.94C891.136 1368.08 835.357 1314.3 774.121 1292.44C731.303 1277.14 686.518 1277.79 642.7 1284.58C535.5 1301.2 432.402 1353.8 326.18 1380.49C219.958 1407.18 91.2605 1395.43 0.000488281 1311.26V2490.99L1442.82 2491Z" fill="#E4F1FC"/>
</g>
<defs>
<linearGradient id="paint0_linear" x1="-5.99927" y1="728.993" x2="1444" y2="728.993" gradientUnits="userSpaceOnUse">
<stop stop-color="#0A3DE4"/>
<stop offset="1" stop-color="#4490FD"/>
</linearGradient>
<linearGradient id="paint1_linear" x1="-208" y1="28.512" x2="1517" y2="28.512" gradientUnits="userSpaceOnUse">
<stop stop-color="#0A3DE4"/>
<stop offset="0.71" stop-color="#217AFD"/>
</linearGradient>
<clipPath id="clip0">
<rect width="1440" height="2491" fill="white"/>
</clipPath>
</defs>
</svg>
